<?xml version="1.0" encoding="UTF-8" standalone="no"?>
<svg
   xmlns:dc="http://purl.org/dc/elements/1.1/"
   xmlns:cc="http://creativecommons.org/ns#"
   xmlns:rdf="http://www.w3.org/1999/02/22-rdf-syntax-ns#"
   xmlns:svg="http://www.w3.org/2000/svg"
   xmlns="http://www.w3.org/2000/svg"
   xmlns:sodipodi="http://sodipodi.sourceforge.net/DTD/sodipodi-0.dtd"
   xmlns:inkscape="http://www.inkscape.org/namespaces/inkscape"
   viewBox="0 0 1080.36 1080.36"
   version="1.1"
   id="svg905"
   sodipodi:docname="logo-light-seafoam.svg"
   inkscape:version="1.0.2 (e86c870879, 2021-01-15, custom)">
  <metadata
     id="metadata909">
    <rdf:RDF>
      <cc:Work
         rdf:about="">
        <dc:format>image/svg+xml</dc:format>
        <dc:type
           rdf:resource="http://purl.org/dc/dcmitype/StillImage" />
        <dc:title>Logo</dc:title>
      </cc:Work>
    </rdf:RDF>
  </metadata>
  <sodipodi:namedview
     pagecolor="#ffffff"
     bordercolor="#666666"
     borderopacity="1"
     objecttolerance="10"
     gridtolerance="10"
     guidetolerance="10"
     inkscape:pageopacity="0"
     inkscape:pageshadow="2"
     inkscape:window-width="1898"
     inkscape:window-height="1034"
     id="namedview907"
     showgrid="false"
     inkscape:zoom="0.38737088"
     inkscape:cx="666.51792"
     inkscape:cy="362.34189"
     inkscape:window-x="2324"
     inkscape:window-y="10"
     inkscape:window-maximized="0"
     inkscape:current-layer="Layer_2" />
  <defs
     id="defs892">
    <style
       id="style890">.cls-1{fill:#0f2439;}</style>
  </defs>
  <title
     id="title894">Logo</title>
  <g
     id="Layer_2"
     data-name="Layer 2">
    <path
       class="cls-1"
       d="m 614.82,1080.38 c -12.85,-5.26 -25.35,-11 -34.83,-21.77 -10.93,-12.44 -17.42,-26.27 -17.4,-43.27 q 0.24,-193.9 0.09,-387.81 c 0,-35.09 29.8,-64.88 64.89,-64.89 h 384.33 c 31.91,0 56.56,18 66.58,48.52 a -23.42,-23.42 0 0 0 1.94,3.62 v 413.24 c -5.74,10.12 -10.66,20.79 -17.44,30.1 -8.51,11.68 -21.76,17.14 -34.92,22.26 z"
       id="path896"
       style="fill:#7ae6e6;fill-opacity:1"
       inkscape:export-xdpi="95.877373"
       inkscape:export-ydpi="95.877373" />
    <path
       class="cls-1"
       d="m 49.82,1080.38 c -11.42,-5.22 -23.72,-9 -31.6,-19 L 496.46,583.13 c 11.73,11.5 18.79,25.44 18.79,42.65 v 266.68 c 0,40.09 -1,80.21 0.32,120.26 1,30.37 -22.51,57.3 -47.16,65.3 a -49.25,-49.25 0 0 0 -5.35,2.36 z"
       id="path898"
       style="fill:#7ae6e6;fill-opacity:1"
       inkscape:export-xdpi="95.877373"
       inkscape:export-ydpi="95.877373" />
    <path
       class="cls-1"
       d="m 1080.42,463.02 c -6.62,11 -11.9,23.2 -20.2,32.77 -11.62,13.39 -27.37,19.52 -45.74,19.49 q -194,-0.33 -388,-0.06 c -17.35,0 -31.18,-7.17 -42.7,-17.86 l 478.4,-478.34 c 9.46,6.94 12.88,19.45 18.24,30.76 z"
       id="path900"
       style="fill:#7ae6e6;fill-opacity:1"
       inkscape:export-xdpi="95.877373"
       inkscape:export-ydpi="95.877373" />
    <path
       class="cls-1"
       d="m 233.68054,799.70335 -0.89936,-0.78455 c -4.94648,-4.30545 -8.43867,-5.20481 -14.35149,-3.00424 -35.07504,13.1651 -70.35101,25.83268 -105.36864,39.11259 -6.86002,2.61198 -10.70622,1.58824 -14.35149,-4.60204 Q 74.7904,789.50422 50.4694,748.85123 c -3.607,-6.03719 -2.6789,-10.05561 2.6215,-14.97339 27.97589,-26.0049 55.3968,-52.62213 83.36308,-78.61746 5.04215,-4.68816 5.444,-8.6109 4.12366,-15.10734 q -9.10841,-44.86276 -16.49465,-90.05082 c -1.04287,-6.33379 -2.8703,-9.49112 -8.94576,-11.69168 C 76.6752,524.50873 38.3663,510.18594 0,496.00667 v -8.26646 c 0.6889,-2.97555 1.5404,-5.92239 2.0283,-8.92663 4.449,-27.46875 9.0989,-54.89924 13.0982,-82.4254 1.483,-10.20869 6.4773,-13.1651 16.4372,-13.56694 36.7781,-1.51169 73.50835,-4.15237 110.27687,-5.90325 6.53471,-0.30616 9.06057,-2.99468 12.03612,-8.50565 14.35149,-26.57896 29.03785,-52.97613 44.55659,-78.87579 3.95145,-6.60169 4.33415,-10.81146 0.51666,-17.35574 -20.28344,-34.7019 -40.05023,-69.70041 -61.28087,-106.8612 l 84.45374,-73.67099 c 5.55881,4.12366 9.12755,6.7452 12.66758,9.40501 29.13353,21.94822 58.36273,43.80075 87.30491,65.95945 5.21437,3.98972 9.06057,4.47767 15.55701,1.91354 28.30114,-11.41422 56.96585,-21.94822 85.68797,-32.30043 5.49184,-1.99007 8.24733,-4.10452 9.27107,-10.27566 C 438.9547,88.37648 446.00607,50.5077 452.3877,12.4954 453.34447,6.6495 455.258,4.3437 461.26649,3.8845 472.87206,3.0425 484.42023,1.3395 495.98753,0 h 45.52293 c 3.62614,0.6984 7.3384,2.2867 10.86886,1.9135 10.52443,-1.0333 14.79161,3.253 17.03044,13.7488 7.58715,35.6204 16.57119,70.9346 24.53148,106.47846 1.71261,7.65412 4.86994,10.9167 12.80153,13.26077 24.00526,7.08007 48.58458,13.65306 70.86766,24.63673 16.82952,8.30473 26.78945,5.98936 39.84931,-6.04676 26.0049,-23.91915 53.75112,-46.01088 82.98032,-70.73372 26.0049,22.11087 51.77061,44.21216 77.77551,66.01686 a -37.572203,-37.572203 0 0 1 3.98015,3.82707 L 558.80879,475.53187 a -57.061528,-57.061528 0 0 0 -40.77737,-16.64773 -57.692994,-57.692994 0 0 0 -58.15224,58.09484 c 0,16.14064 4.28631,30.39646 14.7342,40.83477 z"
       id="path902"
       style="stroke-width:0.956766;fill:#7ae6e6;fill-opacity:1"
       inkscape:export-xdpi="95.877373"
       inkscape:export-ydpi="95.877373" />
  </g>
</svg>
